<?xml version="1.0" encoding="UTF-8" standalone="no"?>
<!-- Created with Inkscape (http://www.inkscape.org/) -->

<svg
   xmlns:dc="http://purl.org/dc/elements/1.1/"
   xmlns:cc="http://creativecommons.org/ns#"
   xmlns:rdf="http://www.w3.org/1999/02/22-rdf-syntax-ns#"
   xmlns:svg="http://www.w3.org/2000/svg"
   xmlns="http://www.w3.org/2000/svg"
   xmlns:sodipodi="http://sodipodi.sourceforge.net/DTD/sodipodi-0.dtd"
   xmlns:inkscape="http://www.inkscape.org/namespaces/inkscape"
   width="149.47797mm"
   height="207.72795mm"
   viewBox="0 0 149.47797 207.72795"
   version="1.1"
   id="svg8"
   inkscape:version="0.92.2 2405546, 2018-03-11"
   sodipodi:docname="drawingmod.svg">
  <defs
     id="defs2">
    <clipPath
       clipPathUnits="userSpaceOnUse"
       id="clipPath900">
      <rect
         y="123.67197"
         x="42.839684"
         height="68.424721"
         width="155.71471"
         id="rect902"
         style="opacity:1;fill:none;fill-opacity:1;fill-rule:nonzero;stroke:none;stroke-width:0.0568614;stroke-linecap:round;stroke-linejoin:round;stroke-miterlimit:4;stroke-dasharray:none;stroke-opacity:1" />
    </clipPath>
  </defs>
  <sodipodi:namedview
     id="base"
     pagecolor="#ffffff"
     bordercolor="#666666"
     borderopacity="1.0"
     inkscape:pageopacity="0.0"
     inkscape:pageshadow="2"
     inkscape:zoom="0.98994949"
     inkscape:cx="169.29819"
     inkscape:cy="382.42634"
     inkscape:document-units="mm"
     inkscape:current-layer="layer1"
     showgrid="false"
     inkscape:window-width="776"
     inkscape:window-height="849"
     inkscape:window-x="16"
     inkscape:window-y="16"
     inkscape:window-maximized="0"
     inkscape:snap-bbox="true"
     inkscape:bbox-paths="true"
     fit-margin-top="0"
     fit-margin-left="0"
     fit-margin-right="0"
     fit-margin-bottom="0" />
  <metadata
     id="metadata5">
    <rdf:RDF>
      <cc:Work
         rdf:about="">
        <dc:format>image/svg+xml</dc:format>
        <dc:type
           rdf:resource="http://purl.org/dc/dcmitype/StillImage" />
        <dc:title />
      </cc:Work>
    </rdf:RDF>
  </metadata>
  <g
     inkscape:label="Layer 1"
     inkscape:groupmode="layer"
     id="layer1"
     style="display:inline;opacity:1"
     transform="translate(-46.789439,-42.496153)">
    <path
       style="fill:#cba287;fill-opacity:1;stroke:#010101;stroke-width:0.5;stroke-linecap:butt;stroke-linejoin:miter;stroke-miterlimit:4;stroke-dasharray:none;stroke-opacity:1"
       d="m 137.63197,146.27169 c -6.24743,-9.1874 -8.05079,-16.09242 -6.26899,-31.68314 l -43.431306,18.70886 8.285356,47.97488 z"
       id="path6087"
       inkscape:connector-curvature="0"
       sodipodi:nodetypes="ccccc" />
    <path
       style="fill:#b07a93;fill-opacity:1;stroke:#000000;stroke-width:0.5;stroke-linecap:butt;stroke-linejoin:round;stroke-miterlimit:4;stroke-dasharray:none;stroke-opacity:1"
       d="m 55.057521,186.08314 c 3.297243,-3.9242 36.615925,-26.45968 36.615925,-26.45968 0,0 6.108514,4.14674 9.342364,5.83712 2.39083,1.2497 2.7768,2.18387 6.81811,0.81298 12.16611,-4.12697 30.59986,-23.67683 30.59986,-23.67683 l 5.00818,7.27604 c 0,0 9.37914,2.69515 28.82069,18.04836 6.47337,5.11209 12.90355,10.76512 18.23735,16.72545 6.52103,7.28702 5.49472,25.10622 5.40856,30.83621 l -148.869123,-0.0811 c 0,0 1.165556,-12.52661 3.207234,-19.16234 1.101608,-3.58038 2.40105,-7.28824 4.81085,-10.15625 z"
       id="path4599"
       inkscape:connector-curvature="0"
       sodipodi:nodetypes="scssccssccss"
       clip-path="url(#clipPath900)" />
    <g
       id="g4612"
       style="fill:#4a57cd;fill-opacity:1">
      <path
         sodipodi:nodetypes="cccc"
         inkscape:connector-curvature="0"
         id="path4601"
         d="m 99.557897,164.7684 7.383323,6.48129 -13.664156,-0.40091 z"
         style="fill:#4a57cd;fill-opacity:1;stroke:#000000;stroke-width:0.5;stroke-linecap:butt;stroke-linejoin:miter;stroke-miterlimit:4;stroke-dasharray:none;stroke-opacity:1" />
      <path
         sodipodi:nodetypes="cscccssc"
         inkscape:connector-curvature="0"
         id="path4607"
         d="m 105.50464,177.73097 c 0,0 4.63987,15.19694 5.41221,23.052 1.26045,12.81937 0.36454,38.43146 0.36454,38.43146 L 98.739298,249.8889 86.953156,238.82974 c 0,0 -0.391571,-24.06474 2.181229,-35.77498 0.952285,-4.33438 2.078834,-9.16164 4.009045,-12.6953 2.154592,-3.94444 12.36121,-12.62849 12.36121,-12.62849 z"
         style="fill:#4a57cd;fill-opacity:1;fill-rule:nonzero;stroke:#000000;stroke-width:0.5;stroke-linecap:butt;stroke-linejoin:miter;stroke-miterlimit:4;stroke-dasharray:none;stroke-opacity:1" />
      <path
         sodipodi:nodetypes="czccc"
         inkscape:connector-curvature="0"
         id="path4603"
         d="m 98.037575,184.31585 c 0,0 8.356835,0.11664 9.732885,-1.03944 1.37605,-1.15608 9.11868,-19.60751 9.11868,-19.60751 l -18.421595,7.30568 c 0.409475,4.68533 0.696083,7.99448 -0.42997,13.34127 z"
         style="fill:#4a57cd;fill-opacity:1;stroke:#000000;stroke-width:0.5;stroke-linecap:butt;stroke-linejoin:miter;stroke-miterlimit:4;stroke-dasharray:none;stroke-opacity:1" />
    </g>
    <path
       style="display:inline;fill:#b07a93;fill-opacity:1;stroke:#000000;stroke-width:0.5;stroke-linecap:butt;stroke-linejoin:round;stroke-miterlimit:4;stroke-dasharray:none;stroke-opacity:1"
       d="m 105.00304,166.55433 14.39962,14.31706 c 0,0 3.20271,-5.43688 5.0113,-8.01809 4.54318,-6.48401 10.47284,-11.9727 14.63301,-18.70886 1.50244,-2.43275 4.44886,-5.87909 3.24974,-7.93981 -1.33598,-2.2959 -1.82897,-2.8413 -5.01131,-8.01809 -0.95303,-1.55031 -4.6529,-1.81553 -4.6529,-1.81553 0,0 2.63311,4.41078 1.33635,5.64607 -11.92221,11.3571 -28.96581,24.53725 -28.96581,24.53725 z"
       id="path4584"
       inkscape:connector-curvature="0"
       sodipodi:nodetypes="ccsssscsc" />
    <circle
       style="opacity:1;fill:#ffffff;fill-opacity:1;stroke:#000000;stroke-width:0.41716942;stroke-linecap:round;stroke-linejoin:round;stroke-miterlimit:4;stroke-dasharray:none;stroke-opacity:1"
       id="path4591"
       cx="118.73177"
       cy="175.81137"
       r="1.6950611" />
    <path
       style="fill:#b07992;fill-opacity:1;stroke:#000000;stroke-width:0.5;stroke-linecap:butt;stroke-linejoin:round;stroke-miterlimit:4;stroke-dasharray:none;stroke-opacity:1"
       d="m 102.86488,165.88616 c 0,0 -3.329107,0.4559 -5.00819,2.25163 -1.977512,2.11492 -2.093761,5.40315 -3.307291,8.03199 -1.591914,3.44853 -2.890174,4.60254 -2.890174,4.60254 0,0 -3.391418,-13.19638 -2.456844,-17.10342 0.772953,-3.23138 1.209758,-5.45568 0.472469,-11.81176 -0.158491,-1.36633 1.228423,-2.17336 1.228423,-2.17336 0,0 0.417212,5.81491 2.740327,8.50446 4.178986,4.83816 9.22128,7.69792 9.22128,7.69792 z"
       id="path4595"
       inkscape:connector-curvature="0"
       sodipodi:nodetypes="csscsscsc" />
    <ellipse
       style="opacity:1;fill:#ffffff;fill-opacity:1;stroke:#000000;stroke-width:0.50401205;stroke-linecap:round;stroke-linejoin:round;stroke-miterlimit:4;stroke-dasharray:none;stroke-opacity:1"
       id="path4597"
       cx="124.2289"
       cy="178.82942"
       rx="0.90203464"
       ry="1.6294556"
       transform="matrix(1,0,-0.17737712,0.98414296,0,0)" />
    <path
       style="fill:#cfaa94;fill-opacity:1;stroke:#000000;stroke-width:0.5;stroke-linecap:butt;stroke-linejoin:miter;stroke-miterlimit:4;stroke-dasharray:none;stroke-opacity:1"
       d="m 124.75981,114.55967 c 7.81151,2.55134 10.03953,1.3244 13.37034,-5.71018 1.18024,-2.49263 1.65441,-14.958058 0.21862,-17.110133 -0.70316,-1.053955 -2.36029,-4.541789 -6.02943,-0.188989 -2.69831,1.026389 -2.97656,5.055433 -2.97656,5.055433 z"
       id="path6089"
       inkscape:connector-curvature="0"
       sodipodi:nodetypes="cssccc" />
    <path
       style="fill:none;stroke:#000000;stroke-width:0.26458332px;stroke-linecap:butt;stroke-linejoin:miter;stroke-opacity:1"
       d="m 132.29503,110.71506 1.74813,-2.97657 -0.17416,-5.075 3.0076,-7.737045"
       id="path6091"
       inkscape:connector-curvature="0"
       sodipodi:nodetypes="cccc" />
    <path
       style="fill:#d0aa94;fill-opacity:1;stroke:#000000;stroke-width:0.5;stroke-linecap:butt;stroke-linejoin:miter;stroke-miterlimit:4;stroke-dasharray:none;stroke-opacity:1"
       d="m 101.22834,145.79226 c 5.69877,0.16384 19.85936,-8.76688 26.05877,-17.10525 1.84615,-2.48312 7.32921,-45.30153 5.47903,-52.785727 -2.99788,-12.126753 -20.85922,-18.614489 -33.275061,-17.238885 -18.922724,2.096528 -28.804124,4.353315 -28.998741,23.72017 -0.154705,15.395154 9.700867,44.669682 11.358955,47.640792 3.949407,7.07691 10.450333,15.51227 19.377047,15.7689 z"
       id="path6093"
       inkscape:connector-curvature="0"
       sodipodi:nodetypes="sssssss" />
    <path
       style="fill:#ae8a72;fill-opacity:1;stroke:#000000;stroke-width:0.5;stroke-linecap:butt;stroke-linejoin:miter;stroke-miterlimit:4;stroke-dasharray:none;stroke-opacity:1"
       d="m 136.78267,89.764615 -0.89073,-16.902868 -12.24231,-21.162733 -18.53983,-8.93386 -32.931408,10.837172 -3.953691,27.195293 3.96875,19.276781 0.755954,-21.544639 3.212796,-9.07143 17.764881,2.078871 15.308038,-1.322917 13.22916,-1.889881 6.04762,19.843749 2.62291,15.552857 z"
       id="path6095"
       inkscape:connector-curvature="0"
       sodipodi:nodetypes="ccccccccccccccc" />
  </g>
</svg>
